<svg xmlns="http://www.w3.org/2000/svg" width="48" height="48" viewBox="0 0 48 48">
  <g id="그룹_120" data-name="그룹 120" transform="translate(-1794 -16)">
    <rect id="사각형_1483" data-name="사각형 1483" width="48" height="48" transform="translate(1794 16)" fill="none"/>
    <g id="outline-shopping_cart-24px" transform="translate(1806 28)">
      <path id="패스_246" data-name="패스 246" d="M0,0H24V24H0Z" fill="none"/>
      <path id="패스_247" data-name="패스 247" d="M15.55,13a1.991,1.991,0,0,0,1.75-1.03l3.58-6.49A1,1,0,0,0,20.01,4H5.21L4.27,2H1V4H3l3.6,7.59L5.25,14.03A2,2,0,0,0,7,17H19V15H7l1.1-2ZM6.16,6H18.31l-2.76,5H8.53ZM7,18a2,2,0,1,0,2,2A2,2,0,0,0,7,18Zm10,0a2,2,0,1,0,2,2A2,2,0,0,0,17,18Z"/>
    </g>
  </g>
</svg>
