<svg xmlns="http://www.w3.org/2000/svg" xmlns:xlink="http://www.w3.org/1999/xlink" width="100" height="14" viewBox="0 0 100 14">
  <defs>
    <clipPath id="clip-path">
      <rect width="100" height="14" fill="none"/>
    </clipPath>
  </defs>
  <g id="심볼_17_1" data-name="심볼 17 – 1" clip-path="url(#clip-path)">
    <g id="발뮤다로고">
      <path id="패스_15" data-name="패스 15" d="M290.2,42.507h-2.345V33l-.172-.042c-1.378,2.047-2.753,4.094-4.2,6.251l-4.327-6.455v9.728H276.86V28.815a20.531,20.531,0,0,1,2.1.024,1.162,1.162,0,0,1,.7.517c1.165,1.76,2.3,3.541,3.449,5.315.123.191.261.372.43.612,1.162-1.8,2.355-3.517,3.39-5.319a1.962,1.962,0,0,1,2.209-1.16,7.676,7.676,0,0,0,1.063.007C290.2,33.416,290.2,37.922,290.2,42.507Z" transform="translate(-235.658 -28.699)"/>
      <path id="패스_16" data-name="패스 16" d="M37.73,43.288V29.732c2.564,0,5.081-.13,7.575.049a3.089,3.089,0,0,1,2.941,2.649,3.263,3.263,0,0,1-1.765,3.677,1.527,1.527,0,0,0,.266.21c1.9.863,2.524,1.911,2.287,3.884a3.567,3.567,0,0,1-3.185,2.882,40.477,40.477,0,0,1-4.24.2C40.341,43.311,39.071,43.288,37.73,43.288Zm2.31-2.032c1.788-.08,3.491-.083,5.176-.259a1.593,1.593,0,0,0,1.461-1.671A1.545,1.545,0,0,0,45.3,37.6c-1.731-.193-3.482-.2-5.258-.292Zm.016-5.98c1.454,0,2.87.068,4.274-.024a1.715,1.715,0,0,0,1.586-1.673,1.54,1.54,0,0,0-1.374-1.72c-1.484-.106-2.981-.03-4.486-.03Z" transform="translate(-37.73 -29.454)"/>
      <path id="패스_17" data-name="패스 17" d="M459.82,42.441V28.885c2.639.151,5.277-.374,7.844.492a6.622,6.622,0,0,1,4.486,7.044,6.491,6.491,0,0,1-5.606,5.975A66.016,66.016,0,0,1,459.82,42.441Zm2.407-11.3v9.19a30.738,30.738,0,0,0,3.762-.028,4.36,4.36,0,0,0,3.67-4.66,4.416,4.416,0,0,0-3.9-4.486C464.61,31.061,463.45,31.143,462.227,31.143Z" transform="translate(-387.227 -28.774)"/>
      <path id="패스_18" data-name="패스 18" d="M382.146,29.25h2.405c0,.75.009,1.464,0,2.179-.035,2.287.038,4.583-.146,6.86a4.99,4.99,0,0,1-5.27,4.8,9.172,9.172,0,0,1-3.219-.494c-2.237-.845-3.019-2.8-3.1-4.992-.1-2.748-.024-5.5-.024-8.324H375.2c0,2.444-.01,4.868.007,7.295a9.371,9.371,0,0,0,.158,1.722,3.405,3.405,0,0,0,6.63.019,9.054,9.054,0,0,0,.144-1.638C382.154,34.221,382.146,31.765,382.146,29.25Z" transform="translate(-315.025 -29.093)"/>
      <path id="패스_19" data-name="패스 19" d="M125.241,42.149c-2.449.12-2.525.148-3.313-1.995a1.7,1.7,0,0,0-2.009-1.3c-1.673.094-3.355.024-5.058.024-.386.906-.791,1.769-1.122,2.659a.861.861,0,0,1-1.03.656c-.515-.05-1.038-.01-1.7-.01.435-1.017.828-1.958,1.237-2.894,1.48-3.386,2.978-6.766,4.437-10.161a1.079,1.079,0,0,1,1.061-.757c1.165-.125,1.692.3,2.141,1.393,1.644,3.978,3.42,7.9,5.145,11.845C125.1,41.761,125.152,41.921,125.241,42.149Zm-7.149-10.905c-.83,1.948-1.572,3.687-2.338,5.484h4.7C119.672,34.9,118.924,33.172,118.092,31.243Z" transform="translate(-98.264 -28.349)"/>
      <path id="패스_20" data-name="패스 20" d="M549.809,42.326H547.3c-.367-.878-.75-1.748-1.091-2.635a.856.856,0,0,0-.943-.664c-1.736.04-3.473.037-5.209,0a.812.812,0,0,0-.9.6c-.259.673-.6,1.317-.824,2a.94.94,0,0,1-1.151.729c-.487-.047-.981-.009-1.6-.009.35-.823.661-1.579.988-2.327,1.545-3.548,3.138-7.075,4.611-10.651.395-.958,1.049-.746,1.732-.812a1.088,1.088,0,0,1,1.278.817c1.718,4.039,3.5,8.049,5.261,12.069C549.566,41.7,549.665,41.968,549.809,42.326Zm-9.5-5.432h4.722c-.791-1.828-1.551-3.579-2.372-5.474C541.849,33.311,541.1,35.051,540.309,36.894Z" transform="translate(-449.809 -28.513)"/>
      <path id="패스_21" data-name="패스 21" d="M207.05,29.24h2.325V40.718h7.175v2.146h-9.5Z" transform="translate(-177.865 -29.085)"/>
    </g>
  </g>
</svg>
